<svg xmlns="http://www.w3.org/2000/svg" viewBox="0 0 128 128" width="128" height="128">
  <defs>
    <linearGradient id="g" x1="0" y1="0" x2="0" y2="1">
      <stop offset="0%" stop-color="#FF7A5C"/>
      <stop offset="100%" stop-color="#D63A20"/>
    </linearGradient>
    <linearGradient id="f" x1="0" y1="1" x2="0" y2="0">
      <stop offset="0%" stop-color="#FA5539"/>
      <stop offset="40%" stop-color="#FF8C42"/>
      <stop offset="100%" stop-color="#FFD166"/>
    </linearGradient>
  </defs>

  <!-- Dark rounded background -->
  <rect x="4" y="4" width="120" height="120" rx="24" fill="#1A1A1E"/>

  <!-- Flame (simplified) -->
  <path d="M64 14 C54 30,34 42,30 58 C26 74,36 86,42 92 C38 82,42 72,48 66
           C44 78,40 90,46 100 C52 92,56 84,60 80 C58 90,56 98,64 106
           C72 98,70 90,68 80 C72 84,76 92,82 100 C88 90,84 78,80 66
           C86 72,90 82,86 92 C92 86,102 74,98 58 C94 42,74 30,64 14Z"
        fill="url(#f)" opacity="0.85"/>

  <!-- Tiger head -->
  <path d="M64 44 C46 44,33 56,30 68 C27 80,34 90,46 98 C52 102,58 104,64 105
           C70 104,76 102,82 98 C94 90,101 80,98 68 C95 56,82 44,64 44Z"
        fill="url(#g)"/>

  <!-- Ears -->
  <path d="M42 52 L34 34 L48 48Z" fill="url(#g)"/>
  <path d="M86 52 L94 34 L80 48Z" fill="url(#g)"/>
  <path d="M43 50 L38 38 L48 48Z" fill="#D63A20"/>
  <path d="M85 50 L90 38 L80 48Z" fill="#D63A20"/>

  <!-- Forehead stripes -->
  <path d="M55 52 C56 47,60 46,61 51" stroke="#D63A20" stroke-width="2" fill="none" stroke-linecap="round"/>
  <path d="M63 50 C64 45,66 45,67 50" stroke="#D63A20" stroke-width="2" fill="none" stroke-linecap="round"/>
  <path d="M69 52 C70 47,74 46,75 51" stroke="#D63A20" stroke-width="2" fill="none" stroke-linecap="round"/>

  <!-- Eyes -->
  <ellipse cx="52" cy="68" rx="8" ry="7" fill="white"/>
  <ellipse cx="54" cy="69" rx="4" ry="5" fill="#1A1A1E"/>
  <circle cx="55.5" cy="67" r="1.5" fill="white"/>
  <ellipse cx="76" cy="68" rx="8" ry="7" fill="white"/>
  <ellipse cx="74" cy="69" rx="4" ry="5" fill="#1A1A1E"/>
  <circle cx="75.5" cy="67" r="1.5" fill="white"/>

  <!-- Nose -->
  <path d="M61 80 C61 77,67 77,67 80 C67 83,64 85,64 85 C64 85,61 83,61 80Z" fill="#D63A20"/>

  <!-- Mouth -->
  <path d="M64 85 C64 85,58 90,55 88" stroke="#D63A20" stroke-width="1.5" fill="none" stroke-linecap="round"/>
  <path d="M64 85 C64 85,70 90,73 88" stroke="#D63A20" stroke-width="1.5" fill="none" stroke-linecap="round"/>

  <!-- Cheek stripes -->
  <path d="M34 66 C38 65,42 66,44 69" stroke="#D63A20" stroke-width="1.5" fill="none" stroke-linecap="round"/>
  <path d="M33 74 C37 73,42 74,44 77" stroke="#D63A20" stroke-width="1.5" fill="none" stroke-linecap="round"/>
  <path d="M94 66 C90 65,86 66,84 69" stroke="#D63A20" stroke-width="1.5" fill="none" stroke-linecap="round"/>
  <path d="M95 74 C91 73,86 74,84 77" stroke="#D63A20" stroke-width="1.5" fill="none" stroke-linecap="round"/>
</svg>
